<?xml version="1.0" encoding="UTF-8" standalone="no"?>
<!-- Created with Inkscape (http://www.inkscape.org/) -->

<svg
   xmlns:dc="http://purl.org/dc/elements/1.1/"
   xmlns:cc="http://creativecommons.org/ns#"
   xmlns:rdf="http://www.w3.org/1999/02/22-rdf-syntax-ns#"
   xmlns:svg="http://www.w3.org/2000/svg"
   xmlns="http://www.w3.org/2000/svg"
   xmlns:sodipodi="http://sodipodi.sourceforge.net/DTD/sodipodi-0.dtd"
   xmlns:inkscape="http://www.inkscape.org/namespaces/inkscape"
   width="19.944221mm"
   height="13.39025mm"
   viewBox="0 0 19.944222 13.39025"
   version="1.1"
   id="svg8"
   inkscape:version="0.92.4 5da689c313, 2019-01-14"
   sodipodi:docname="W(TBU Jazzy) White.svg">
  <defs
     id="defs2" />
  <sodipodi:namedview
     id="base"
     pagecolor="#ffffff"
     bordercolor="#666666"
     borderopacity="1.0"
     inkscape:pageopacity="0.0"
     inkscape:pageshadow="2"
     inkscape:zoom="7.919596"
     inkscape:cx="55.743371"
     inkscape:cy="28.826237"
     inkscape:document-units="mm"
     inkscape:current-layer="layer1"
     showgrid="false"
     inkscape:window-width="1880"
     inkscape:window-height="1016"
     inkscape:window-x="20"
     inkscape:window-y="44"
     inkscape:window-maximized="0" />
  <metadata
     id="metadata5">
    <rdf:RDF>
      <cc:Work
         rdf:about="">
        <dc:format>image/svg+xml</dc:format>
        <dc:type
           rdf:resource="http://purl.org/dc/dcmitype/StillImage" />
        <dc:title></dc:title>
      </cc:Work>
    </rdf:RDF>
  </metadata>
  <g
     inkscape:label="Layer 1"
     inkscape:groupmode="layer"
     id="layer1"
     transform="translate(-0.84462242,-146.405)">
    <path
       style="fill:#ffffff;stroke-width:0.26458335"
       d="m 5.804208,159.39833 -0.3968749,0.32937 v -0.28136 -0.28137 l 0.2624878,-0.16222 0.2624878,-0.16223 0.4329472,0.24229 0.4329473,0.24229 -0.2985601,0.18452 -0.2985601,0.18452 v -0.31259 -0.3126 z m 1.6128932,-0.0661 -0.5454407,0.46302 0.3585665,-0.46302 0.3585662,-0.46302 H 6.9169868 6.2451804 l -0.1156849,-0.33073 -0.1156848,-0.33073 -0.6339681,0.52728 -0.6339679,0.52727 0.6207691,-0.70372 0.6207692,-0.70371 -0.2437681,-0.43559 -0.243768,-0.43559 -0.3482787,0.41965 -0.348279,0.41965 0.5004443,-0.18789 0.5004445,-0.18788 -0.363126,0.44641 -0.3631258,0.44641 H 4.8898668 4.7017774 l -0.00895,-0.46302 -0.00895,-0.46302 0.3602413,-0.41606 0.3602416,-0.41606 -0.5655104,-1.70061 -0.5655103,-1.7006 -0.092835,-0.10862 -0.092835,-0.10862 -0.5969346,0.5036 -0.5969347,0.5036 0.6414331,-0.72571 0.6414331,-0.72571 h -0.295089 -0.295089 l -0.1635215,0.26458 -0.1635215,0.26459 h -0.20488 -0.2048714 l -0.00895,-0.46302 -0.00895,-0.46302 0.3602413,-0.41607 0.3602416,-0.41606 -0.5655104,-1.7006 -0.5655102,-1.70061 -0.09283,-0.10862 -0.09284,-0.10862 -0.596935,0.5036 -0.596934,0.50361 0.602792,-0.68458 0.602792,-0.68458 -0.168079,-0.43801 -0.168079,-0.43801 h 1.730258 1.7302575 l 1.002279,3.0453 1.0022787,3.04529 0.255797,-0.0853 0.2557971,-0.0853 0.1170072,-0.35103 0.1170072,-0.35102 -0.3650541,0.18874 -0.3650541,0.18875 0.4166225,-0.35035 0.4166224,-0.35035 0.3109817,-0.89938 0.3109818,-0.89938 v -0.27567 -0.27567 l -0.3884605,0.51359 -0.3884602,0.51359 -0.00841,-0.28302 -0.00841,-0.28301 0.6614583,-0.57513 0.6614583,-0.57513 v -0.30734 -0.30734 l -0.5291666,0.47889 -0.5291667,0.47888 v -0.15446 -0.15446 l 0.90487,-0.95944 0.9048701,-0.95904 h 1.400294 1.400293 l 0.8537,2.90469 0.853699,2.74369 0.157102,0.40941 0.157103,0.4094 0.226172,-0.24268 0.226171,-0.24268 0.200195,-0.65938 0.200194,-0.65939 -0.43504,0.36105 -0.43504,0.36105 v -0.32175 -0.32175 l 0.493758,-0.12912 0.493757,-0.12912 0.299993,-1.00128 0.299992,-1.00129 v -0.20014 -0.20013 l -0.463021,0.36312 -0.46302,0.36313 0.360708,-0.46011 0.360708,-0.46011 0.19532,0.12072 0.19532,0.12071 0.314488,-1.04967 0.314489,-1.04967 h 1.727 1.727001 l -0.188286,0.59324 -0.188287,0.59324 -0.05596,0.16888 -1.947791,5.54003 -1.947791,5.54003 h -0.339006 -0.339006 l -0.152295,0.39688 -0.152295,0.39687 h -0.305284 -0.305284 l 0.329377,-0.39687 0.329376,-0.39688 h -0.73085 -0.730833 l -0.317262,0.43388 -0.317262,0.43388 -0.456229,-0.25531 -0.456229,-0.25532 0.463132,-0.377 0.463132,-0.377 -0.197506,0.52916 -0.197505,0.52917 0.263204,-0.26458 0.263205,-0.26459 -0.30219,-1.12448 -0.302189,-1.12448 h -0.206804 -0.206803 l 0.06303,0.59532 0.06303,0.59531 0.210961,0.15565 0.210962,0.15564 -0.458937,0.37352 -0.458937,0.37352 0.173525,-0.46302 0.173526,-0.46302 H 12.245806 11.95713 l 0.334404,-0.40293 0.334403,-0.40293 -0.500444,0.18071 -0.500444,0.18072 0.620769,-0.68183 0.620769,-0.68183 -0.243768,-0.43559 -0.243768,-0.43559 -0.348279,0.41965 -0.348279,0.41965 0.500444,-0.18789 0.500445,-0.18788 -0.363126,0.44641 -0.363126,0.44641 h -0.188089 -0.18809 l -0.009,-0.46302 -0.009,-0.46302 0.388885,-0.44771 0.388884,-0.44771 -0.379932,-1.13979 -0.37993,-1.13979 h -0.220486 -0.220486 l -1.036285,3.10886 -1.0362846,3.10885 H 8.514972 7.9625415 Z m -3.9941431,-6.98192 0.396875,-0.1523 v -0.26867 -0.26867 l -0.396875,0.32937 -0.396875,0.32938 v 0.0916 0.0916 z m 4.6145933,7.31265 H 7.7573532 l 0.1635215,-0.26458 0.1635215,-0.26459 h 0.1166767 0.1166768 v 0.26459 0.26458 z m 6.2020936,0 h -0.132292 l 0.163522,-0.26458 0.163521,-0.26459 h 0.132292 0.132292 l -0.163522,0.26459 -0.163521,0.26458 z M 4.477202,157.01708 H 4.405615 l -0.165164,-0.43041 -0.165164,-0.43041 0.3068516,-0.36974 0.3068513,-0.36973 0.1322916,0.13229 0.1322917,0.13229 -0.3397102,0.40933 -0.3397102,0.40932 0.5004443,-0.18788 0.5004446,-0.18789 -0.3631261,0.44641 -0.3631258,0.44642 z m -0.5574742,-1.32292 h -0.099895 v -0.0999 -0.0999 l 0.4630208,-0.36313 0.4630208,-0.36312 -0.363126,0.46302 -0.3631258,0.46302 z m 7.7117812,-0.53453 -0.415456,0.34479 0.183311,-0.4777 0.183312,-0.4777 -0.276473,0.17087 -0.276474,0.17087 v -0.66146 -0.66146 l 0.231511,-0.14308 0.23151,-0.14308 0.03969,0.2802 0.03969,0.2802 0.02646,0.33073 0.02646,0.33073 0.210961,0.15564 0.210961,0.15565 z m -0.271051,-1.05297 h 0.132292 v -0.13229 -0.13229 h -0.132292 -0.132291 v 0.13229 0.13229 z m -7.3795596,0.74608 -0.4256487,0.42565 v -0.26837 -0.26836 l 0.3307292,-0.33318 0.3307292,-0.33317 -0.5291667,0.1975 -0.5291667,0.19751 0.3770011,-0.46313 0.3770011,-0.46313 0.2470851,0.44151 0.2470849,0.44152 z m 11.0837266,-2.33363 h -0.132292 v -0.13229 -0.13229 h 0.132292 0.132292 v 0.13229 0.13229 z M 2.6251184,151.72536 h -0.07159 l -0.165164,-0.43041 -0.165164,-0.43041 0.306852,-0.36973 0.3068512,-0.36974 0.1322916,0.13229 0.1322917,0.1323 -0.3397102,0.40932 -0.3397103,0.40933 0.5004444,-0.18789 0.5004446,-0.18789 -0.3631261,0.44642 -0.3631259,0.44641 z m 5.2957563,-0.79375 -0.396875,0.32938 v -0.26459 -0.26458 l 0.396875,-0.32938 0.396875,-0.32937 v 0.26458 0.26458 z m -5.8532303,-0.52912 h -0.0999 v -0.0999 -0.0999 l 0.463021,-0.36312 0.4630207,-0.36313 -0.3631257,0.46302 -0.363126,0.46302 z m 13.3458436,0 h -0.281365 l 0.334683,-0.40327 0.334684,-0.40326 0.121082,0.12108 0.121083,0.12108 -0.174401,0.28219 -0.174401,0.28218 z m -13.2846726,-0.84138 -0.425649,0.42565 v -0.26836 -0.26837 l 0.330729,-0.33317 0.330729,-0.33318 -0.529166,0.19751 -0.529167,0.1975 0.377001,-0.46313 0.377001,-0.46313 0.247085,0.44152 0.247085,0.44151 z m -1.002827,-1.80445 H 0.84462242 l 0.33468398,-0.40327 0.334683,-0.40327 0.121083,0.12108 0.121082,0.12109 -0.1744,0.28218 -0.174401,0.28219 z m 15.2459386,0 H 16.25525 v -0.26458 -0.26459 h 0.280198 0.280198 l -0.163521,0.26459 -0.163522,0.26458 z"
       id="path848"
       inkscape:connector-curvature="0"
       sodipodi:nodetypes="ccccccccccccccccccccccccccccccccccccccccccccccccccccccccccccccccccccccccccccccccccccccccccccccccccccccccccccccccccccccccccccccccccccccccccccccccccccccccccccccccccccccccccccccccccccccccccccccccccccccccccccccccccccccccccccccccccccccccccccccccccccccccccccccccccccccccccccccccccccccccccccccccccccccccccccccccccccccccccccccccccccccccccccccccccccccccccccccccccccccccccccccc" />
  </g>
</svg>
